<?xml version="1.0" standalone="no"?><!DOCTYPE svg PUBLIC "-//W3C//DTD SVG 1.1//EN" "http://www.w3.org/Graphics/SVG/1.1/DTD/svg11.dtd"><svg t="1560933686279" class="icon" style="" viewBox="0 0 1024 1024" version="1.1" xmlns="http://www.w3.org/2000/svg" p-id="5611" xmlns:xlink="http://www.w3.org/1999/xlink" width="128" height="128"><defs><style type="text/css"></style></defs><path d="M708.286502 958.708971H315.696102c-16.963347 0-31.383778-12.373819-33.959439-29.14376l-15.427365-100.360756c-113.279996-79.706343-180.343391-204.487278-180.175569-336.743464 0-235.527225 191.048197-427.170986 425.870364-427.170986s425.862177 191.643762 425.862178 427.212942c0.151449 130.795928-66.911946 255.535931-180.167383 336.533686l-15.452947 100.527554c-2.566452 16.770965-16.996093 29.144784-33.959439 29.144784z m-363.101785-68.724221h333.62238l13.221116-86.023212a34.362622 34.362622 0 0 1 14.899338-23.372313c101.710496-67.793012 162.348552-175.469384 162.214499-288.044322 0-197.717084-160.217005-358.530676-357.137957-358.530677-196.929138 0-357.146143 160.812569-357.146143 358.488721-0.151449 115.628484 58.875922 220.553185 161.937183 287.910269a34.342156 34.342156 0 0 1 15.159258 23.548322l13.230326 86.023212z" fill="#444444" p-id="5612"></path><path d="M359.110891 662.603043c-72.64246 0-131.736347-59.102073-131.736347-131.744533S286.46843 399.123186 359.110891 399.123186a34.328853 34.328853 0 0 1 24.295336 10.067287l97.381911 97.373724a34.367739 34.367739 0 0 1 10.067286 24.295336c-0.001023 72.641437-59.103096 131.74351-131.744533 131.74351z m-12.902868-193.430454c-28.573779 5.973038-50.109258 31.359218-50.109258 61.685921 0 34.748409 28.263717 63.020312 63.011103 63.020312 30.326702 0 55.721069-21.535479 61.694107-50.117444l-74.595952-74.588789z" fill="#444444" p-id="5613"></path><path d="M580.736501 809.54879l-64.470337-58.053184-56.518225 56.510038-60.73834-60.754712L513.161453 633.106242 638.219703 745.706763z" fill="#00D8A0" p-id="5614"></path><path d="M664.880923 662.603043c-72.64246 0-131.736347-59.102073-131.736347-131.744533a34.367739 34.367739 0 0 1 10.067286-24.295336l97.373725-97.373724a34.367739 34.367739 0 0 1 24.295336-10.067287c72.650647 0 131.744533 59.093886 131.744533 131.736347S737.53157 662.603043 664.880923 662.603043z m-61.685921-118.841665c5.973038 28.581965 31.367405 50.117444 61.685921 50.117444 34.748409 0 63.020312-28.271904 63.020312-63.020312 0-30.326702-21.526269-55.712883-50.117444-61.685921l-74.588789 74.588789z" fill="#444444" p-id="5615"></path></svg>