<?xml version="1.0" standalone="no"?><!DOCTYPE svg PUBLIC "-//W3C//DTD SVG 1.1//EN" "http://www.w3.org/Graphics/SVG/1.1/DTD/svg11.dtd"><svg t="1560933597928" class="icon" style="" viewBox="0 0 1024 1024" version="1.1" xmlns="http://www.w3.org/2000/svg" p-id="5224" xmlns:xlink="http://www.w3.org/1999/xlink" width="128" height="128"><defs><style type="text/css"></style></defs><path d="M536.289196 509.814218a35.524075 35.524075 0 0 1-22.125927-7.695263c-15.494902-12.232602-18.129916-34.707476-5.898337-50.194192l142.946667-180.969655c12.232602-15.494902 34.759665-18.121729 50.184982-5.889127 15.494902 12.232602 18.129916 34.707476 5.898337 50.194193L564.348252 496.229828c-7.049556 8.925277-17.501606 13.58439-28.059056 13.58439z" fill="#444444" p-id="5225"></path><path d="M518.438643 793.422508c-19.735483 0-35.736922-16.001439-35.736923-35.736923V494.118747c0-19.735483 16.001439-35.736922 35.736923-35.736922s35.736922 16.001439 35.736922 35.736922v263.566838c0 19.735483-16.001439 35.736922-35.736922 35.736923z" fill="#444444" p-id="5226"></path><path d="M687.298492 531.548218H349.578794c-19.735483 0-35.736922-16.001439-35.736923-35.736922s16.001439-35.736922 35.736923-35.736922h337.719698c19.735483 0 35.736922 16.001439 35.736922 35.736922s-16.001439 35.736922-35.736922 35.736922zM687.298492 671.28375H349.578794c-19.735483 0-35.736922-16.001439-35.736923-35.736923s16.001439-35.736922 35.736923-35.736922h337.719698c19.735483 0 35.736922 16.001439 35.736922 35.736922s-16.001439 35.736922-35.736922 35.736923z" fill="#444444" p-id="5227"></path><path d="M288.650119 270.77603l125.078717 160.814616H520.93858L395.859863 270.77603z" fill="#00D8A0" p-id="5228"></path><path d="M887.23615 958.714088h-750.4723c-39.418778 0-71.473845-32.055067-71.473845-71.473845V136.759757c0-39.409568 32.055067-71.473845 71.473845-71.473845h750.4723c39.418778 0 71.473845 32.063253 71.473845 71.473845V887.240243c-0.001023 39.418778-32.05609 71.473845-71.473845 71.473845z m-750.4723-821.954331V887.240243h750.524489l-0.052189-750.480486h-750.4723z" fill="#444444" p-id="5229"></path></svg>