<?xml version="1.0" standalone="no"?><!DOCTYPE svg PUBLIC "-//W3C//DTD SVG 1.1//EN" "http://www.w3.org/Graphics/SVG/1.1/DTD/svg11.dtd"><svg t="1560936727166" class="icon" style="" viewBox="0 0 1024 1024" version="1.1" xmlns="http://www.w3.org/2000/svg" p-id="5318" xmlns:xlink="http://www.w3.org/1999/xlink" width="128" height="128"><defs><style type="text/css"></style></defs><path d="M254.419504 895.348921l-34.458813-78.682013c81.316004-35.599799 186.806593-55.211463 297.061696-55.211463 104.953354 0 206.602452 17.96721 286.190091 50.598398l-32.580023 79.487356C701.127452 863.038028 611.07139 847.351768 517.022387 847.351768c-98.66309-0.001023-191.923124 17.044188-262.602883 47.997153z" fill="#00D8A0" p-id="5319"></path><path d="M389.940037 590.998215c-85.089957 0-173.5865-28.209482-238.712777-105.5745C33.213449 345.214393 70.51603 151.311171 72.15946 143.124721a34.369785 34.369785 0 0 1 22.849404-25.835411c119.079072-39.575344 255.908414-11.365862 348.548324 71.861678h0.016373c151.307078 135.90632 104.013959 346.065783 101.933577 354.939894a34.370809 34.370809 0 0 1-22.447245 24.686239c-40.329521 13.639648-86.212524 22.221094-133.119856 22.221094zM136.749524 176.710654c-5.184069 48.216141-9.612938 173.376723 67.055208 264.456091 73.380264 87.187735 188.165544 93.218078 277.919731 68.439742 6.475482-48.786123 13.370519-181.798533-84.084047-269.338285h0.016373c-68.330248-61.367673-170.767292-85.71929-260.907265-63.557548z" fill="#444444" p-id="5320"></path><path d="M680.542624 614.267175c-66.787102 0-131.041522-25.467021-179.810249-58.784848a34.329876 34.329876 0 0 1-14.947433-29.811979c0.318248-7.590885 9.5454-186.822966 161.691589-261.956154v0.008186c93.109608-46.01808 209.336726-37.864376 296.104905 20.718881a34.343179 34.343179 0 0 1 15.031345 31.027667c-0.503467 6.92062-14.041808 170.499186-140.150994 256.411881-44.323485 30.205952-91.734284 42.386366-137.919163 42.386366zM556.664246 509.590114c63.146179 36.799114 150.099576 55.219649 223.110427 5.502317 75.997881-51.780317 100.256378-143.866618 107.48706-184.508247-63.667042-34.332946-145.267525-36.924981-209.354122-5.259794v0.008187c-90.038666 44.458561-114.716718 142.769634-121.243365 184.257537z m106.027825-215.066217h0.167822-0.167822z" fill="#444444" p-id="5321"></path><path d="M491.873614 924.371932c-17.179264 0-32.010041-12.850679-34.073027-30.331819-16.239869-137.835252-13.169951-228.470505 12.666484-372.99204 3.321652-18.672268 21.054525-31.204699 39.860847-27.773553 18.688641 3.338025 31.120788 21.188578 27.78174 39.869033-24.476461 136.929626-27.412326 222.666312-12.062734 352.84314 2.214435 18.856463-11.257391 35.935444-30.097482 38.149878-1.3743 0.167822-2.733251 0.23536-4.075828 0.235361z" fill="#444444" p-id="5322"></path></svg>