<?xml version="1.0" standalone="no"?><!DOCTYPE svg PUBLIC "-//W3C//DTD SVG 1.1//EN" "http://www.w3.org/Graphics/SVG/1.1/DTD/svg11.dtd"><svg t="1560936827103" class="icon" style="" viewBox="0 0 1024 1024" version="1.1" xmlns="http://www.w3.org/2000/svg" p-id="5814" xmlns:xlink="http://www.w3.org/1999/xlink" width="128" height="128"><defs><style type="text/css"></style></defs><path d="M512.004093 958.713065a33.083489 33.083489 0 0 1-30.318516-19.840884c-23.323195-53.367465-38.986943-61.639872-44.63457-62.72253-5.582135-1.026376-22.701025 0.727571-62.72253 40.384779a33.152051 33.152051 0 0 1-36.167734 6.971785 33.081443 33.081443 0 0 1-20.212344-30.795377c0.557702-58.286498-10.437723-70.202898-13.814634-72.464405-3.37691-2.269693-18.48398-7.844665-71.705112 14.702863-12.384052 5.258771-26.756387 2.455935-36.29667-7.077185a33.090653 33.090653 0 0 1-7.077186-36.296671c22.547529-53.229319 16.957207-68.344574 14.702863-71.705112-2.261507-3.37691-14.250562-14.452153-72.472591-13.814634-13.410428-0.346901-25.576515-7.860015-30.795377-20.212344a33.101909 33.101909 0 0 1 6.971785-36.167734c39.633672-39.996946 41.451064-57.18849 40.392966-62.72253-1.082658-5.65479-9.355065-21.311375-62.72253-44.63457a33.083489 33.083489 0 0 1-19.840884-30.318516 33.075303 33.075303 0 0 1 19.840884-30.318516c53.367465-23.315008 61.639872-38.978756 62.72253-44.626383 1.058099-5.53404-0.759293-22.724561-40.392966-62.72253-9.435906-9.524934-12.190647-23.815405-6.971785-36.167735s17.498536-20.786419 30.795377-20.212344c58.271148 0.775666 70.202898-10.437723 72.472591-13.814633 2.246157-3.368724 7.844665-18.48398-14.702863-71.713299-5.250584-12.408611-2.455935-26.77276 7.077186-36.296671a33.078373 33.078373 0 0 1 36.304857-7.077185c53.245691 22.563902 68.336388 16.957207 71.696925 14.71105 3.37691-2.261507 14.371312-14.177907 13.814634-72.472592a33.094746 33.094746 0 0 1 20.212344-30.795377c12.352329-5.202489 26.6428-2.464121 36.167734 6.971785 39.972387 39.617299 57.147558 41.402969 62.72253 40.392966 5.646604-1.082658 21.311375-9.363252 44.63457-62.730717a33.075303 33.075303 0 0 1 30.318516-19.840884 33.075303 33.075303 0 0 1 30.318516 19.840884c23.315008 53.367465 38.978756 61.648059 44.63457 62.730717 5.453199 0.969071 22.692838-0.74292 62.730717-40.392966 9.516748-9.444093 23.831778-12.18246 36.159547-6.971785a33.081443 33.081443 0 0 1 20.212344 30.795377c-0.565888 58.294684 10.42135 70.211085 13.798261 72.472592 3.360538 2.237971 18.48398 7.820106 71.705112-14.71105 12.375865-5.235235 26.756387-2.472308 36.304857 7.077185a33.100886 33.100886 0 0 1 7.077186 36.304858c-22.555715 53.222155-16.949021 68.336388-14.702863 71.697948 2.27788 3.385097 13.831007 14.549368 72.480778 13.822821 13.524015-0.848321 25.576515 7.852852 30.795376 20.212344 5.218862 12.352329 2.455935 26.634614-6.979971 36.167734-39.633672 39.996946-41.442878 57.18849-40.392966 62.72253 1.082658 5.646604 9.355065 21.311375 62.72253 44.626383a33.075303 33.075303 0 0 1 19.840884 30.318516 33.083489 33.083489 0 0 1-19.840884 30.318516c-53.367465 23.323195-61.639872 38.978756-62.72253 44.63457-1.049912 5.53404 0.759293 22.717398 40.392966 62.72253 9.435906 9.533121 12.198833 23.815405 6.979971 36.167735-5.218862 12.352329-17.175171 20.438495-30.795376 20.212344-58.715263-0.831948-70.235644 10.437723-72.480778 13.814633-2.246157 3.368724-7.852852 18.475793 14.702863 71.697949a33.098839 33.098839 0 0 1-7.077186 36.304857c-9.54847 9.541307-23.928992 12.319583-36.304857 7.077186-53.286624-22.579251-68.344574-16.957207-71.705112-14.702863-3.37691 2.261507-14.364149 14.177907-13.798261 72.464405a33.083489 33.083489 0 0 1-20.212344 30.795376c-12.311397 5.210675-26.627451 2.472308-36.159547-6.971785-40.021505-39.641859-57.252958-41.370223-62.730717-40.384779-5.65479 1.082658-21.319561 9.355065-44.63457 62.72253a33.07735 33.07735 0 0 1-30.318516 19.838838z m-77.336366-148.968824c4.895497 0 9.831926 0.452301 14.816451 1.406023 26.41665 5.057179 46.605457 22.99983 62.519915 45.27209 15.906272-22.272259 36.09508-40.21491 62.511729-45.27209 25.019837-4.782933 48.964178 3.175319 70.744228 16.504906 5.590322-25.318642 16.625656-48.237631 37.791721-62.399166 20.826328-13.951757 45.709041-15.58393 70.833255-11.366885-4.233418-25.076118-2.601244-49.974182 11.358699-70.825068 14.169721-21.174252 37.096896-32.201399 62.415538-37.799908-13.329587-21.788236-21.295002-45.732577-16.513092-70.752414 5.057179-26.408463 23.008017-46.605457 45.272089-62.511729-22.265096-15.906272-40.21491-36.09508-45.272089-62.503543-4.782933-25.027 3.182482-48.964178 16.513092-70.752413-25.318642-5.598508-48.244794-16.625656-62.415538-37.799908-13.959943-20.850887-15.592117-45.74895-11.358699-70.825069-25.092491 4.217045-49.974182 2.593058-70.833255-11.366885-21.166065-14.169721-32.201399-37.080523-37.791721-62.407352-21.796422 13.337773-45.732577 21.295002-70.744228 16.513092-26.41665-5.057179-46.605457-23.008017-62.511729-45.280276-15.914458 22.280446-36.103266 40.223097-62.519915 45.280276-25.027 4.806469-48.947805-3.182482-70.744228-16.513092-5.598508 25.326828-16.625656 48.244794-37.799907 62.415538-20.842701 13.951757-45.74895 15.58393-70.825069 11.358699 4.225231 25.076118 2.593058 49.982368-11.358699 70.825069-14.169721 21.166065-37.08871 32.201399-62.415538 37.799908 13.329587 21.780049 21.303188 45.724391 16.513092 70.744227-5.057179 26.41665-22.99983 46.605457-45.272089 62.511729 22.272259 15.906272 40.21491 36.103266 45.272089 62.511729 4.790096 25.027-3.182482 48.964178-16.513092 70.752414 25.326828 5.598508 48.244794 16.625656 62.415538 37.799908 13.951757 20.842701 15.575744 45.74895 11.358699 70.825068 25.107841-4.225231 49.990554-2.593058 70.833255 11.358699 21.166065 14.169721 32.193213 37.08871 37.791721 62.407352 17.441231-10.673084 36.272112-17.910928 55.927777-17.910929z" fill="#444444" p-id="5815"></path><path d="M631.009488 666.527422c-56.622602 0-113.62485-37.71088-139.993405-93.250824-24.995277-52.648081-16.059767-111.01542 23.912619-156.135036 30.900777-34.883485 73.92671-49.513694 118.084419-40.264029 52.915164 11.148921 101.580536 55.524594 118.351502 107.913778v0.016373c9.807367 30.674627 9.096169 62.439074-2.051729 91.861175-20.794605 54.942333-62.027705 87.668689-113.13264 89.753163-1.729387 0.064468-3.442402 0.105401-5.170766 0.1054z m-24.16333-209.695906c-11.245112 0-20.939915 4.943592-30.003337 15.171538-18.289552 20.641109-22.022573 42.776246-11.099803 65.792449 12.505825 26.328645 42.12133 47.025013 67.060325 45.966914 6.365988-0.258896 25.770943-1.049912 39.148626-36.393885 5.638417-14.864546 3.457752-28.517497 0.630356-37.355793-7.755638-24.203238-32.620955-47.130414-56.622602-52.187592-3.151783-0.663102-6.180769-0.99363-9.113565-0.993631z" fill="#00D8A0" p-id="5816"></path><path d="M332.289012 540.865421c-2.835581 0-5.706979-0.261966-8.589632-0.785899-24.239054-4.484128-40.790008-26.482141-44.597731-45.890166-3.962242-20.113083 4.721535-37.808094 23.194258-47.320749 13.098319-6.741541 28.355815-7.013741 41.880853-0.846274 20.809955 9.533121 32.44904 31.833009 33.208333 48.933479 0.451278 10.529821-2.63399 20.2543-8.922207 28.134781-9.099239 11.446703-22.208814 17.774829-36.173874 17.774828z" fill="#444444" p-id="5817"></path></svg>